<?xml version="1.0" encoding="utf-8"?>
<!-- Generator: Adobe Illustrator 27.7.0, SVG Export Plug-In . SVG Version: 6.00 Build 0)  -->
<svg version="1.1" id="Layer_1" xmlns="http://www.w3.org/2000/svg" xmlns:xlink="http://www.w3.org/1999/xlink" x="0px" y="0px"
	 viewBox="0 0 1000 750" style="enable-background:new 0 0 1000 750;" xml:space="preserve">
<style type="text/css">
	.st0{opacity:0.5;}
	.st1{fill:#FBB975;}
	.st2{fill:none;stroke:#F47C06;stroke-miterlimit:10;}
	.st3{opacity:0.5;fill:#F6901E;}
	.st4{fill:#F8F1AF;}
	.st5{filter:url(#Adobe_OpacityMaskFilter);}
	.st6{opacity:0.75;mask:url(#SVGID_1_);}
	.st7{fill:#FFFFFF;}
	.st8{filter:url(#Adobe_OpacityMaskFilter_00000106119427884933022180000011644986675935743627_);}
	.st9{opacity:0.75;mask:url(#SVGID_00000054235378137914935720000014657964509743860661_);}
	.st10{filter:url(#Adobe_OpacityMaskFilter_00000145738364701791372730000010776651681049595319_);}
	.st11{opacity:0.75;mask:url(#SVGID_00000052062393591905046960000007401455087875606196_);}
</style>
<g class="st0">
	<path class="st1" d="M454.7,433.4c24,0,46.8-4.8,67.5-13.4c20.7-8.6,39.4-21.1,55.1-36.5c15.7-15.4,28.4-33.7,37.2-54.1
		c8.8-20.4,13.6-42.8,13.6-66.3c0-23.5-4.8-45.9-13.6-66.3c-8.8-20.4-21.5-38.7-37.2-54.1c-15.7-15.4-34.4-27.9-55.1-36.5
		c-20.7-8.6-43.6-13.4-67.5-13.4c-23.9,0-46.7,4.8-67.4,13.4c-20.8,8.6-63.2,48.9-72.9,67.6c-16.3,27-23.2,61.8-23.1,85.4
		c0,23.5,4.8,45.9,13.6,66.3c8.8,20.4,32.6,71.4,82.5,94.5C408,428.6,430.8,433.4,454.7,433.4z"/>
	<path class="st2" d="M454.7,433.4c24,0,46.8-4.8,67.5-13.4c20.7-8.6,39.4-21.1,55.1-36.5c15.7-15.4,28.4-33.7,37.2-54.1
		c8.8-20.4,13.6-42.8,13.6-66.3c0-23.5-4.8-45.9-13.6-66.3c-8.8-20.4-21.5-38.7-37.2-54.1c-15.7-15.4-34.4-27.9-55.1-36.5
		c-20.7-8.6-43.6-13.4-67.5-13.4c-23.9,0-46.7,4.8-67.4,13.4c-20.8,8.6-63.2,48.9-72.9,67.6c-16.3,27-23.2,61.8-23.1,85.4
		c0,23.5,4.8,45.9,13.6,66.3c8.8,20.4,32.6,71.4,82.5,94.5C408,428.6,430.8,433.4,454.7,433.4z"/>
</g>
<path class="st3" d="M593.2,319c6.5,0,20-25.6,20-57.1c0-31.5-13.4-57.1-20-57.1c-6.5,0-3.7,25.6-3.7,57.1
	C589.5,293.4,586.6,319,593.2,319z"/>
<g class="st0">
	<g>
		<path class="st4" d="M444.2,420.3c75.8,0,137.2-70.1,137.2-156.5c0-86.4-61.4-156.5-137.2-156.5c-75.8,0-137.2,70-137.2,156.5
			C307,350.2,368.4,420.3,444.2,420.3z"/>
	</g>
	<defs>
		<filter id="Adobe_OpacityMaskFilter" filterUnits="userSpaceOnUse" x="307" y="107.3" width="274.4" height="313">
			<feFlood  style="flood-color:white;flood-opacity:1" result="back"/>
			<feBlend  in="SourceGraphic" in2="back" mode="normal"/>
		</filter>
	</defs>
	<mask maskUnits="userSpaceOnUse" x="307" y="107.3" width="274.4" height="313" id="SVGID_1_">
		<g class="st5">
			
				<image style="overflow:visible;" width="279" height="318" xlink:href="F6DA9B315C5E506A.jpg"  transform="matrix(1 0 0 1 305 105)">
			</image>
		</g>
	</mask>
	<g class="st6">
		<path class="st7" d="M444.2,420.3c75.8,0,137.2-70.1,137.2-156.5c0-86.4-61.4-156.5-137.2-156.5c-75.8,0-137.2,70-137.2,156.5
			C307,350.2,368.4,420.3,444.2,420.3z"/>
	</g>
</g>
<g class="st0">
	<path class="st1" d="M578.8,580.2c24,0,46.8-4.8,67.5-13.4c20.7-8.6,39.4-21.1,55.1-36.5c15.7-15.4,28.4-33.7,37.2-54.1
		c8.8-20.4,13.6-42.8,13.6-66.3c0-23.5-4.8-45.9-13.6-66.3c-8.8-20.4-21.5-38.7-37.2-54.1c-15.7-15.4-34.4-27.9-55.1-36.5
		c-20.7-8.6-43.6-13.4-67.5-13.4c-23.9,0-46.7,4.8-67.4,13.4c-20.8,8.6-63.2,48.9-72.9,67.6c-16.3,27-23.2,61.8-23.1,85.4
		c0,23.5,4.8,45.9,13.6,66.3c8.8,20.4,32.6,71.4,82.5,94.5C532.1,575.5,554.9,580.2,578.8,580.2z"/>
	<path class="st2" d="M578.8,580.2c24,0,46.8-4.8,67.5-13.4c20.7-8.6,39.4-21.1,55.1-36.5c15.7-15.4,28.4-33.7,37.2-54.1
		c8.8-20.4,13.6-42.8,13.6-66.3c0-23.5-4.8-45.9-13.6-66.3c-8.8-20.4-21.5-38.7-37.2-54.1c-15.7-15.4-34.4-27.9-55.1-36.5
		c-20.7-8.6-43.6-13.4-67.5-13.4c-23.9,0-46.7,4.8-67.4,13.4c-20.8,8.6-63.2,48.9-72.9,67.6c-16.3,27-23.2,61.8-23.1,85.4
		c0,23.5,4.8,45.9,13.6,66.3c8.8,20.4,32.6,71.4,82.5,94.5C532.1,575.5,554.9,580.2,578.8,580.2z"/>
</g>
<path class="st3" d="M717.2,465.8c6.5,0,20-25.6,20-57.1c0-31.5-13.4-57.1-20-57.1c-6.5,0-3.7,25.6-3.7,57.1
	C713.5,440.2,710.7,465.8,717.2,465.8z"/>
<g class="st0">
	<g>
		<path class="st4" d="M568.3,567.1c75.8,0,137.2-70.1,137.2-156.5c0-86.4-61.4-156.5-137.2-156.5c-75.8,0-137.2,70-137.2,156.5
			C431.1,497.1,492.5,567.1,568.3,567.1z"/>
	</g>
	<defs>
		
			<filter id="Adobe_OpacityMaskFilter_00000011715520899474717450000001475516062357925045_" filterUnits="userSpaceOnUse" x="431.1" y="254.1" width="274.4" height="313">
			<feFlood  style="flood-color:white;flood-opacity:1" result="back"/>
			<feBlend  in="SourceGraphic" in2="back" mode="normal"/>
		</filter>
	</defs>
	
		<mask maskUnits="userSpaceOnUse" x="431.1" y="254.1" width="274.4" height="313" id="SVGID_00000180332877948137709570000015935467145195471029_">
		<g style="filter:url(#Adobe_OpacityMaskFilter_00000011715520899474717450000001475516062357925045_);">
			
				<image style="overflow:visible;" width="279" height="318" xlink:href="F6DA9B315C5E506E.jpg"  transform="matrix(1 0 0 1 429 252)">
			</image>
		</g>
	</mask>
	<g style="opacity:0.75;mask:url(#SVGID_00000180332877948137709570000015935467145195471029_);">
		<path class="st7" d="M568.3,567.1c75.8,0,137.2-70.1,137.2-156.5c0-86.4-61.4-156.5-137.2-156.5c-75.8,0-137.2,70-137.2,156.5
			C431.1,497.1,492.5,567.1,568.3,567.1z"/>
	</g>
</g>
<g class="st0">
	<path class="st1" d="M419.3,657.2c24,0,46.8-4.8,67.5-13.4c20.7-8.6,39.4-21.1,55.1-36.5c15.7-15.4,28.4-33.7,37.2-54.1
		c8.8-20.4,13.6-42.8,13.6-66.3c0-23.5-4.8-45.9-13.6-66.3c-8.8-20.4-21.5-38.7-37.2-54.1c-15.7-15.4-34.4-27.9-55.1-36.5
		c-20.7-8.6-43.6-13.4-67.5-13.4c-23.9,0-46.7,4.8-67.4,13.4c-20.8,8.6-63.2,48.9-72.9,67.6c-16.3,27-23.2,61.8-23.1,85.4
		c0,23.5,4.8,45.9,13.6,66.3c8.8,20.4,32.6,71.4,82.5,94.5C372.6,652.4,395.4,657.2,419.3,657.2z"/>
	<path class="st2" d="M419.3,657.2c24,0,46.8-4.8,67.5-13.4c20.7-8.6,39.4-21.1,55.1-36.5c15.7-15.4,28.4-33.7,37.2-54.1
		c8.8-20.4,13.6-42.8,13.6-66.3c0-23.5-4.8-45.9-13.6-66.3c-8.8-20.4-21.5-38.7-37.2-54.1c-15.7-15.4-34.4-27.9-55.1-36.5
		c-20.7-8.6-43.6-13.4-67.5-13.4c-23.9,0-46.7,4.8-67.4,13.4c-20.8,8.6-63.2,48.9-72.9,67.6c-16.3,27-23.2,61.8-23.1,85.4
		c0,23.5,4.8,45.9,13.6,66.3c8.8,20.4,32.6,71.4,82.5,94.5C372.6,652.4,395.4,657.2,419.3,657.2z"/>
</g>
<path class="st3" d="M557.8,542.8c6.5,0,20-25.6,20-57.1c0-31.5-13.4-57.1-20-57.1c-6.5,0-3.7,25.6-3.7,57.1
	C554.1,517.2,551.2,542.8,557.8,542.8z"/>
<g class="st0">
	<g>
		<path class="st4" d="M408.8,644.1c75.8,0,137.2-70.1,137.2-156.5c0-86.4-61.4-156.5-137.2-156.5c-75.8,0-137.2,70-137.2,156.5
			C271.6,574,333,644.1,408.8,644.1z"/>
	</g>
	<defs>
		
			<filter id="Adobe_OpacityMaskFilter_00000101798607667448027690000010080156802248132781_" filterUnits="userSpaceOnUse" x="271.6" y="331.1" width="274.4" height="313">
			<feFlood  style="flood-color:white;flood-opacity:1" result="back"/>
			<feBlend  in="SourceGraphic" in2="back" mode="normal"/>
		</filter>
	</defs>
	
		<mask maskUnits="userSpaceOnUse" x="271.6" y="331.1" width="274.4" height="313" id="SVGID_00000120534254122468780750000011455672912970412730_">
		<g style="filter:url(#Adobe_OpacityMaskFilter_00000101798607667448027690000010080156802248132781_);">
			
				<image style="overflow:visible;" width="279" height="318" xlink:href="F6DA9B315C5E5069.jpg"  transform="matrix(1 0 0 1 269 329)">
			</image>
		</g>
	</mask>
	<g style="opacity:0.75;mask:url(#SVGID_00000120534254122468780750000011455672912970412730_);">
		<path class="st7" d="M408.8,644.1c75.8,0,137.2-70.1,137.2-156.5c0-86.4-61.4-156.5-137.2-156.5c-75.8,0-137.2,70-137.2,156.5
			C271.6,574,333,644.1,408.8,644.1z"/>
	</g>
</g>
</svg>
