<?xml version="1.0" encoding="utf-8"?>
<!-- Generator: Adobe Illustrator 27.7.0, SVG Export Plug-In . SVG Version: 6.00 Build 0)  -->
<svg version="1.1" id="Layer_1" xmlns="http://www.w3.org/2000/svg" xmlns:xlink="http://www.w3.org/1999/xlink" x="0px" y="0px"
	 viewBox="0 0 1000 750" style="enable-background:new 0 0 1000 750;" xml:space="preserve">
<style type="text/css">
	.st0{fill:#C675B6;}
	.st1{fill:none;stroke:#97066D;stroke-miterlimit:10;}
	.st2{fill:#97066D;}
	.st3{opacity:0.9;}
	.st4{fill:#F8F1AF;}
	.st5{opacity:0.75;}
	.st6{fill:#FFFFFF;}
	.st7{fill:#FC9475;}
	.st8{fill:none;stroke:#FD4F10;stroke-miterlimit:10;}
	.st9{fill:#FD4F10;}
	.st10{filter:url(#Adobe_OpacityMaskFilter);}
	.st11{opacity:0.75;mask:url(#SVGID_00000148658770315967011160000011459693209787719868_);}
	.st12{fill:#FBB975;}
	.st13{fill:none;stroke:#F6901E;stroke-miterlimit:10;}
	.st14{opacity:0.75;fill:#F6901E;enable-background:new    ;}
	.st15{filter:url(#Adobe_OpacityMaskFilter_00000080917113315908363200000006026346214758396312_);}
	.st16{opacity:0.75;mask:url(#SVGID_00000009577340558827270690000002437361940634913936_);}
</style>
<g>
	<path class="st0" d="M432.4,441.2c29,0,56.5-5.8,81.6-16.2c25.1-10.4,47.7-25.5,66.6-44.1c19-18.6,34.3-40.8,44.9-65.4
		c10.6-24.6,16.5-51.7,16.5-80.1s-5.8-55.5-16.4-80.1c-10.6-24.6-25.9-46.8-44.9-65.4C561.6,71.2,539,56.1,514,45.7
		c-25.1-10.4-52.6-16.2-81.6-16.2c-28.9,0-56.5,5.7-81.5,16.2c-25.1,10.4-76.4,59.1-88.2,81.7c-19.8,32.6-28,74.8-28,103.2
		s5.8,55.5,16.4,80.1c10.6,24.6,39.4,86.3,99.7,114.3C375.9,435.4,403.5,441.2,432.4,441.2z"/>
	<path class="st1" d="M432.4,441.2c29,0,56.5-5.8,81.6-16.2c25.1-10.4,47.7-25.5,66.6-44.1c19-18.6,34.3-40.8,44.9-65.4
		c10.6-24.6,16.5-51.7,16.5-80.1s-5.8-55.5-16.4-80.1c-10.6-24.6-25.9-46.8-44.9-65.4C561.6,71.2,539,56.1,514,45.7
		c-25.1-10.4-52.6-16.2-81.6-16.2c-28.9,0-56.5,5.7-81.5,16.2c-25.1,10.4-76.4,59.1-88.2,81.7c-19.8,32.6-28,74.8-28,103.2
		s5.8,55.5,16.4,80.1c10.6,24.6,39.4,86.3,99.7,114.3C375.9,435.4,403.5,441.2,432.4,441.2z"/>
</g>
<path class="st2" d="M599.7,302.8c7.9,0,24.1-30.9,24.1-69s-16.2-69-24.1-69c-7.9,0-4.4,30.9-4.5,69
	C595.2,271.9,591.8,302.8,599.7,302.8z"/>
<g class="st3">
	<g>
		<path class="st4" d="M419.6,425.3c91.6,0,165.8-84.7,165.8-189.2C585.5,131.6,511.2,47,419.6,47s-165.8,84.7-165.8,189.2
			C253.8,340.6,328.1,425.3,419.6,425.3z"/>
	</g>
	<g class="st5">
		<path class="st6" d="M419.6,425.3c91.6,0,165.8-84.7,165.8-189.2C585.5,131.6,511.2,47,419.6,47s-165.8,84.7-165.8,189.2
			C253.8,340.6,328.1,425.3,419.6,425.3z"/>
	</g>
</g>
<g>
	<path class="st7" d="M594.4,623.5c29,0,56.5-5.8,81.6-16.2s47.7-25.5,66.6-44.1c19-18.6,34.3-40.8,44.9-65.4
		c10.6-24.6,16.5-51.7,16.5-80.1s-5.8-55.5-16.4-80.1c-10.6-24.6-25.9-46.8-44.9-65.4c-18.9-18.6-41.5-33.7-66.6-44.1
		c-25.1-10.4-52.6-16.2-81.6-16.2c-28.9,0-56.5,5.7-81.5,16.2c-25.1,10.4-76.4,59.1-88.2,81.7c-19.8,32.6-28,74.8-28,103.2
		c0,28.4,5.8,55.5,16.4,80.1s39.4,86.3,99.7,114.3C537.9,617.7,565.5,623.5,594.4,623.5z"/>
	<path class="st8" d="M594.4,623.5c29,0,56.5-5.8,81.6-16.2s47.7-25.5,66.6-44.1c19-18.6,34.3-40.8,44.9-65.4
		c10.6-24.6,16.5-51.7,16.5-80.1s-5.8-55.5-16.4-80.1c-10.6-24.6-25.9-46.8-44.9-65.4c-18.9-18.6-41.5-33.7-66.6-44.1
		c-25.1-10.4-52.6-16.2-81.6-16.2c-28.9,0-56.5,5.7-81.5,16.2c-25.1,10.4-76.4,59.1-88.2,81.7c-19.8,32.6-28,74.8-28,103.2
		c0,28.4,5.8,55.5,16.4,80.1s39.4,86.3,99.7,114.3C537.9,617.7,565.5,623.5,594.4,623.5z"/>
</g>
<path class="st9" d="M761.7,485.2c7.9,0,24.1-30.9,24.1-69s-16.2-69-24.1-69c-7.9,0-4.4,30.9-4.5,69
	C757.3,454.3,753.8,485.2,761.7,485.2z"/>
<g class="st3">
	<g>
		<path class="st4" d="M581.7,607.6c91.6,0,165.8-84.7,165.8-189.2s-74.2-189.1-165.8-189.2c-91.6,0-165.8,84.7-165.8,189.2
			C415.9,522.9,490.1,607.6,581.7,607.6z"/>
	</g>
	<defs>
		<filter id="Adobe_OpacityMaskFilter" filterUnits="userSpaceOnUse" x="415.9" y="229.2" width="331.6" height="378.4">
			<feColorMatrix  type="matrix" values="1 0 0 0 0  0 1 0 0 0  0 0 1 0 0  0 0 0 1 0"/>
		</filter>
	</defs>
	
		<mask maskUnits="userSpaceOnUse" x="415.9" y="229.2" width="331.6" height="378.4" id="SVGID_00000148658770315967011160000011459693209787719868_">
		<g class="st10">
			
				<image style="overflow:visible;enable-background:new    ;" width="337" height="383" xlink:href="F6DA9B315C5E506E.jpg"  transform="matrix(1 0 0 1 413 227)">
			</image>
		</g>
	</mask>
	<g class="st11">
		<path class="st6" d="M581.7,607.6c91.6,0,165.8-84.7,165.8-189.2s-74.2-189.1-165.8-189.2c-91.6,0-165.8,84.7-165.8,189.2
			C415.9,522.9,490.1,607.6,581.7,607.6z"/>
	</g>
</g>
<g class="st5">
	<path class="st12" d="M401.7,716.5c29,0,56.5-5.8,81.6-16.2s47.7-25.5,66.6-44.1c19-18.6,34.3-40.8,44.9-65.4
		c10.6-24.6,16.5-51.7,16.5-80.1s-5.8-55.5-16.4-80.1C584.3,406,569,383.8,550,365.2c-18.9-18.6-41.5-33.7-66.6-44.1
		s-52.6-16.2-81.6-16.2c-28.9,0-56.5,5.7-81.5,16.2c-25.1,10.4-76.4,59.1-88.2,81.7c-19.8,32.6-28,74.8-28,103.2s5.8,55.5,16.4,80.1
		c10.6,24.6,39.4,86.3,99.7,114.3C345.2,710.8,372.8,716.5,401.7,716.5z"/>
	<path class="st13" d="M401.7,716.5c29,0,56.5-5.8,81.6-16.2s47.7-25.5,66.6-44.1c19-18.6,34.3-40.8,44.9-65.4
		c10.6-24.6,16.5-51.7,16.5-80.1s-5.8-55.5-16.4-80.1C584.3,406,569,383.8,550,365.2c-18.9-18.6-41.5-33.7-66.6-44.1
		s-52.6-16.2-81.6-16.2c-28.9,0-56.5,5.7-81.5,16.2c-25.1,10.4-76.4,59.1-88.2,81.7c-19.8,32.6-28,74.8-28,103.2s5.8,55.5,16.4,80.1
		c10.6,24.6,39.4,86.3,99.7,114.3C345.2,710.8,372.8,716.5,401.7,716.5z"/>
</g>
<path class="st14" d="M569,578.2c7.9,0,24.1-30.9,24.1-69s-16.2-69-24.1-69c-7.9,0-4.4,30.9-4.5,69
	C564.5,547.3,561.1,578.2,569,578.2z"/>
<g class="st3">
	<g>
		<path class="st4" d="M388.9,700.7c91.6,0,165.8-84.7,165.8-189.2s-74.2-189.1-165.8-189.2c-91.6,0-165.8,84.7-165.8,189.2
			C223.1,616,297.3,700.7,388.9,700.7z"/>
	</g>
	<defs>
		
			<filter id="Adobe_OpacityMaskFilter_00000099653598372219579120000003907235938884877496_" filterUnits="userSpaceOnUse" x="223.1" y="322.3" width="331.6" height="378.4">
			<feColorMatrix  type="matrix" values="1 0 0 0 0  0 1 0 0 0  0 0 1 0 0  0 0 0 1 0"/>
		</filter>
	</defs>
	
		<mask maskUnits="userSpaceOnUse" x="223.1" y="322.3" width="331.6" height="378.4" id="SVGID_00000009577340558827270690000002437361940634913936_">
		<g style="filter:url(#Adobe_OpacityMaskFilter_00000099653598372219579120000003907235938884877496_);">
			
				<image style="overflow:visible;enable-background:new    ;" width="336" height="383" xlink:href="F6DA9B315C5E5069.jpg"  transform="matrix(1 0 0 1 221 320)">
			</image>
		</g>
	</mask>
	<g class="st16">
		<path class="st6" d="M388.9,700.7c91.6,0,165.8-84.7,165.8-189.2s-74.2-189.1-165.8-189.2c-91.6,0-165.8,84.7-165.8,189.2
			C223.1,616,297.3,700.7,388.9,700.7z"/>
	</g>
</g>
</svg>
